<?xml version="1.0" encoding="UTF-8" standalone="no"?>
<!-- Created with Inkscape (http://www.inkscape.org/) -->

<svg
   width="20"
   height="20"
   viewBox="0 0 20 20"
   version="1.1"
   id="svg5"
   xmlns="http://www.w3.org/2000/svg"
   xmlns:svg="http://www.w3.org/2000/svg"
   xmlns:rdf="http://www.w3.org/1999/02/22-rdf-syntax-ns#"
   xmlns:cc="http://creativecommons.org/ns#"
   xmlns:dc="http://purl.org/dc/elements/1.1/">
  <title
     id="title923">checkbox</title>
  <defs
     id="defs2" />
  <g
     id="layer1">
    <path
       style="fill:#0000ff;stroke:#000000;stroke-width:0.264583"
       id="path412"
       d="m 55.150684,94.479448 -4.82112,-2.307316 -4.633879,2.663471 0.70458,-5.298158 -3.96506,-3.584022 5.256575,-0.967126 2.183337,-4.878519 2.544163,4.700441 5.314436,0.568932 -3.684196,3.872158 z"
       transform="matrix(1.1734408,0.0564505,-0.0573082,1.2472848,-44.041394,-101.36164)" />
    <path
       style="fill:#ffffff;stroke:#000000;stroke-width:0.11229"
       d="m 2.3523701,10.220518 c 0,0 7.2953278,-1.3773993 7.2953278,4.525746 0,-5.9031453 6.5470901,-14.1675525 6.5470901,-14.1675525 0,0 3.367076,0 2.244715,1.770945 C 18.813624,1.1690266 9.0865197,17.697836 10.957116,19.665549 10.582997,18.681696 5.3453258,9.4334315 1.6041307,14.155951 2.1653101,13.565633 2.3523701,10.220518 2.3523701,10.220518 Z"
       id="path919" />
  </g>
  <metadata
     id="metadata921">
    <rdf:RDF>
      <cc:Work
         rdf:about="">
        <dc:title>checkbox</dc:title>
      </cc:Work>
    </rdf:RDF>
  </metadata>
</svg>
